<?xml version="1.0" encoding="UTF-8"?>
<svg version="1.1" xmlns="http://www.w3.org/2000/svg" width="1600" height="1200">
<path d="M0 0 C0.65073486 0.08721313 1.30146973 0.17442627 1.97192383 0.26428223 C98.75144072 13.24946021 191.21637115 50.63457595 270 113 C270.56654297 113.44875488 271.13308594 113.89750977 271.71679688 114.35986328 C274.85565628 116.8553979 277.93824039 119.41070557 281 122 C281.5151416 122.4316748 282.0302832 122.86334961 282.56103516 123.30810547 C296.33347837 134.85931621 309.27441191 147.18829642 322 159.875 C322.49490936 160.36723053 322.98981873 160.85946106 323.49972534 161.36660767 C329.22133978 167.0646837 334.75862554 172.85482655 340 179 C341.02124143 180.1568902 342.04464781 181.31187326 343.0703125 182.46484375 C350.59580402 190.99308353 357.61697145 199.81229443 364.43115234 208.91650391 C365.92373886 210.89872198 367.43619276 212.86363197 368.95703125 214.82421875 C425.73749852 288.46302056 460.67497767 380.0104089 472 472 C472.14953125 473.12825195 472.2990625 474.25650391 472.453125 475.41894531 C477.84781188 517.40216582 477.63117734 563.06546481 472 605 C471.83118437 606.32769207 471.66323684 607.65549477 471.49609375 608.98339844 C461.07542255 690.77530601 431.27388302 769.21325995 386 838 C385.52884766 838.71704102 385.05769531 839.43408203 384.57226562 840.17285156 C374.0281534 856.11216282 362.33875262 871.4098113 350 886 C349.5683252 886.5151416 349.13665039 887.0302832 348.69189453 887.56103516 C337.14068379 901.33347837 324.81170358 914.27441191 312.125 927 C311.63276947 927.49490936 311.14053894 927.98981873 310.63339233 928.49972534 C304.9353163 934.22133978 299.14517345 939.75862554 293 945 C291.8431098 946.02124143 290.68812674 947.04464781 289.53515625 948.0703125 C281.00691647 955.59580402 272.18770557 962.61697145 263.08349609 969.43115234 C261.10127802 970.92373886 259.13636803 972.43619276 257.17578125 973.95703125 C174.64001789 1037.59765405 69.64582434 1074.08832945 -48.390625 1080.203125 C-49.73549431 1080.21014717 -51.08036328 1080.21723399 -52.42523193 1080.22438049 C-56.7001595 1080.2437827 -60.97503284 1080.24881466 -65.25 1080.25 C-66.34248047 1080.25066278 -66.34248047 1080.25066278 -67.45703125 1080.25133896 C-89.4475154 1080.25833656 -111.16511634 1079.93209646 -133 1077 C-134.32769207 1076.83118437 -135.65549477 1076.66323684 -136.98339844 1076.49609375 C-218.77530601 1066.07542255 -297.21325995 1036.27388302 -366 991 C-366.71704102 990.52884766 -367.43408203 990.05769531 -368.17285156 989.57226562 C-384.11216282 979.0281534 -399.4098113 967.33875262 -414 955 C-414.5151416 954.5683252 -415.0302832 954.13665039 -415.56103516 953.69189453 C-429.33347837 942.14068379 -442.27441191 929.81170358 -455 917.125 C-455.49490936 916.63276947 -455.98981873 916.14053894 -456.49972534 915.63339233 C-462.22133978 909.9353163 -467.75862554 904.14517345 -473 898 C-474.02124143 896.8431098 -475.04464781 895.68812674 -476.0703125 894.53515625 C-483.59580402 886.00691647 -490.61697145 877.18770557 -497.43115234 868.08349609 C-498.92373886 866.10127802 -500.43619276 864.13636803 -501.95703125 862.17578125 C-557.12222443 790.63183448 -591.27639645 702.554338 -603.8125 613.4375 C-603.91186859 612.74083221 -604.01123718 612.04416443 -604.11361694 611.3263855 C-607.39509432 588.00592735 -608.38075504 564.71136089 -608.31805801 541.18218994 C-608.3124107 539.02844162 -608.3095946 536.8747012 -608.30697632 534.72094727 C-608.2697953 513.67582878 -607.8048399 492.88722312 -605 472 C-604.83118437 470.67230793 -604.66323684 469.34450523 -604.49609375 468.01660156 C-594.07542255 386.22469399 -564.27388302 307.78674005 -519 239 C-518.52884766 238.28295898 -518.05769531 237.56591797 -517.57226562 236.82714844 C-507.0281534 220.88783718 -495.33875262 205.5901887 -483 191 C-482.5683252 190.4848584 -482.13665039 189.9697168 -481.69189453 189.43896484 C-470.14068379 175.66652163 -457.81170358 162.72558809 -445.125 150 C-444.63276947 149.50509064 -444.14053894 149.01018127 -443.63339233 148.50027466 C-437.9353163 142.77866022 -432.14517345 137.24137446 -426 132 C-424.8431098 130.97875857 -423.68812674 129.95535219 -422.53515625 128.9296875 C-414.00691647 121.40419598 -405.18770557 114.38302855 -396.08349609 107.56884766 C-394.10127802 106.07626114 -392.13636803 104.56380724 -390.17578125 103.04296875 C-317.64883693 47.11981836 -227.6011499 12.26005867 -134.99475098 0.25714111 C-133.0915862 0.01180627 -131.18978993 -0.24407594 -129.28808594 -0.50048828 C-87.50646271 -5.92077667 -41.72367877 -5.72786562 0 0 Z " fill="#000000" transform="translate(867,62)"/>
<path d="M0 0 C8.5858817 0.01339555 17.17173793 0.01569754 25.75762868 0.01504987 C36.2039977 0.01436919 46.65035192 0.02132026 57.0967164 0.03049648 C60.04231529 0.03259807 62.9879117 0.03333341 65.93351126 0.03373539 C92.15871448 0.04068067 118.33004937 0.16192032 144.47697592 2.44791043 C146.710341 2.64236571 148.94446576 2.82527317 151.17888021 3.0072366 C159.8025126 3.72810771 168.31262556 4.7468113 176.84880209 6.20059597 C177.67710531 6.33425564 178.50540854 6.46791531 179.35881186 6.60562527 C211.20936449 11.86446009 241.34238722 25.16924141 265.84880209 46.20059597 C266.6699349 46.89797879 267.49106771 47.5953616 268.33708334 48.31387722 C306.06176657 81.22520375 324.52219618 129.0424 328.16775084 178.26073658 C328.47335976 182.77036727 328.71497778 187.28273561 328.93986654 191.79703152 C329.00399549 193.06696802 329.00399549 193.06696802 329.06941998 194.3625598 C330.19724838 217.36774664 330.12510668 240.38004535 330.08452153 263.40703428 C330.07554469 269.6055287 330.07750212 275.80402203 330.07788229 282.00252163 C330.07695478 292.38407058 330.0683922 302.76558974 330.05461264 313.14712918 C330.0388429 325.07053564 330.03361698 336.99390977 330.03434819 348.91732591 C330.03502825 361.74988883 330.02806933 374.58243967 330.01890159 387.41499889 C330.01679237 391.05794125 330.01606351 394.7008816 330.01566267 398.34382451 C330.00215306 461.78126385 330.00215306 461.78126385 327.59880209 484.01309597 C327.40375082 485.81786404 327.40375082 485.81786404 327.20475912 487.65909207 C322.7877535 525.77284163 309.2839403 563.13186659 283.84880209 592.20059597 C283.39247396 592.72395535 282.93614584 593.24731472 282.46598959 593.78653347 C275.80538261 601.37321415 268.89414575 608.05563759 260.84880209 614.20059597 C259.9271224 614.93793972 259.00544271 615.67528347 258.05583334 616.43497097 C244.56516744 626.99446655 229.70288422 633.95104672 213.84880209 640.20059597 C212.69122396 640.67368191 211.53364584 641.14676785 210.34098959 641.63418972 C166.31974376 658.65927396 114.12048944 655.52205382 67.72055602 655.46924698 C61.72344206 655.46407456 55.72633326 655.46890913 49.72921896 655.47201931 C39.66498333 655.47562842 29.60077733 655.47094268 19.53654623 655.46133816 C8.02247192 655.45047453 -3.49153139 655.45397656 -15.00560397 655.46499097 C-25.01453722 655.47417005 -35.02344953 655.47529769 -45.03238565 655.47011364 C-50.95597557 655.46704947 -56.87953255 655.46642586 -62.80312014 655.47318661 C-211.1150931 655.61924244 -211.1150931 655.61924244 -268.15119791 603.20059597 C-268.99295572 602.43102566 -269.83471354 601.66145535 -270.70197916 600.86856472 C-297.02111918 575.67137738 -312.16287994 540.11804372 -319.08869791 504.88809597 C-319.2760148 503.93717068 -319.4633317 502.98624539 -319.65632486 502.00650418 C-322.77228346 484.58831019 -323.55598288 466.66374299 -324.26057291 449.00918972 C-324.30244478 447.9729037 -324.34431665 446.93661767 -324.38745737 445.86892903 C-325.78489734 409.74018084 -325.45114327 373.55654647 -325.40833664 337.40784597 C-325.4007934 330.2987857 -325.40351542 323.18978116 -325.4119401 316.08072293 C-325.55439428 192.66926244 -325.55439428 192.66926244 -320.15119791 158.20059597 C-320.03663248 157.46921414 -319.92206705 156.7378323 -319.80402994 155.98428738 C-319.09527953 151.67520829 -318.18072213 147.44334375 -317.15119791 143.20059597 C-316.89233805 142.11222439 -316.89233805 142.11222439 -316.62824869 141.00186551 C-312.47305624 123.70466901 -306.54445264 107.88284031 -298.15119791 92.20059597 C-297.58529947 91.13969754 -297.01940104 90.0787991 -296.43635416 88.98575222 C-289.37442061 76.34073709 -280.07932013 65.64328551 -270.15119791 55.20059597 C-269.53244791 54.51739285 -268.91369791 53.83418972 -268.27619791 53.13028347 C-248.04669131 31.54612242 -219.3135123 17.86827064 -191.15119791 10.20059597 C-190.50860025 10.02189969 -189.8660026 9.8432034 -189.20393229 9.65909207 C-176.39142054 6.15180955 -163.3379761 4.59911418 -150.15119791 3.20059597 C-149.0840293 3.08578129 -149.0840293 3.08578129 -147.99530172 2.96864712 C-142.24224475 2.36827986 -136.50604104 1.9381185 -130.72834635 1.67203152 C-129.34699377 1.60818611 -129.34699377 1.60818611 -127.93773508 1.54305089 C-85.31079219 -0.34358158 -42.65856185 -0.06987637 0 0 Z " fill="#000000" transform="translate(797.1511979103088,271.7994040250778)"/>
<path d="M0 0 C8.5858817 0.01339555 17.17173793 0.01569754 25.75762868 0.01504987 C36.2039977 0.01436919 46.65035192 0.02132026 57.0967164 0.03049648 C60.04231529 0.03259807 62.9879117 0.03333341 65.93351126 0.03373539 C92.15871448 0.04068067 118.33004937 0.16192032 144.47697592 2.44791043 C146.710341 2.64236571 148.94446576 2.82527317 151.17888021 3.0072366 C159.8025126 3.72810771 168.31262556 4.7468113 176.84880209 6.20059597 C177.67710531 6.33425564 178.50540854 6.46791531 179.35881186 6.60562527 C211.20936449 11.86446009 241.34238722 25.16924141 265.84880209 46.20059597 C266.6699349 46.89797879 267.49106771 47.5953616 268.33708334 48.31387722 C306.06176657 81.22520375 324.52219618 129.0424 328.16775084 178.26073658 C328.47335976 182.77036727 328.71497778 187.28273561 328.93986654 191.79703152 C329.00399549 193.06696802 329.00399549 193.06696802 329.06941998 194.3625598 C330.19724838 217.36774664 330.12510668 240.38004535 330.08452153 263.40703428 C330.07554469 269.6055287 330.07750212 275.80402203 330.07788229 282.00252163 C330.07695478 292.38407058 330.0683922 302.76558974 330.05461264 313.14712918 C330.0388429 325.07053564 330.03361698 336.99390977 330.03434819 348.91732591 C330.03502825 361.74988883 330.02806933 374.58243967 330.01890159 387.41499889 C330.01679237 391.05794125 330.01606351 394.7008816 330.01566267 398.34382451 C330.00215306 461.78126385 330.00215306 461.78126385 327.59880209 484.01309597 C327.40375082 485.81786404 327.40375082 485.81786404 327.20475912 487.65909207 C322.7877535 525.77284163 309.2839403 563.13186659 283.84880209 592.20059597 C283.39247396 592.72395535 282.93614584 593.24731472 282.46598959 593.78653347 C275.80538261 601.37321415 268.89414575 608.05563759 260.84880209 614.20059597 C259.9271224 614.93793972 259.00544271 615.67528347 258.05583334 616.43497097 C244.56516744 626.99446655 229.70288422 633.95104672 213.84880209 640.20059597 C212.69122396 640.67368191 211.53364584 641.14676785 210.34098959 641.63418972 C166.31974376 658.65927396 114.12048944 655.52205382 67.72055602 655.46924698 C61.72344206 655.46407456 55.72633326 655.46890913 49.72921896 655.47201931 C39.66498333 655.47562842 29.60077733 655.47094268 19.53654623 655.46133816 C8.02247192 655.45047453 -3.49153139 655.45397656 -15.00560397 655.46499097 C-25.01453722 655.47417005 -35.02344953 655.47529769 -45.03238565 655.47011364 C-50.95597557 655.46704947 -56.87953255 655.46642586 -62.80312014 655.47318661 C-211.1150931 655.61924244 -211.1150931 655.61924244 -268.15119791 603.20059597 C-268.99295572 602.43102566 -269.83471354 601.66145535 -270.70197916 600.86856472 C-297.02111918 575.67137738 -312.16287994 540.11804372 -319.08869791 504.88809597 C-319.2760148 503.93717068 -319.4633317 502.98624539 -319.65632486 502.00650418 C-322.77228346 484.58831019 -323.55598288 466.66374299 -324.26057291 449.00918972 C-324.30244478 447.9729037 -324.34431665 446.93661767 -324.38745737 445.86892903 C-325.78489734 409.74018084 -325.45114327 373.55654647 -325.40833664 337.40784597 C-325.4007934 330.2987857 -325.40351542 323.18978116 -325.4119401 316.08072293 C-325.55439428 192.66926244 -325.55439428 192.66926244 -320.15119791 158.20059597 C-320.03663248 157.46921414 -319.92206705 156.7378323 -319.80402994 155.98428738 C-319.09527953 151.67520829 -318.18072213 147.44334375 -317.15119791 143.20059597 C-316.89233805 142.11222439 -316.89233805 142.11222439 -316.62824869 141.00186551 C-312.47305624 123.70466901 -306.54445264 107.88284031 -298.15119791 92.20059597 C-297.58529947 91.13969754 -297.01940104 90.0787991 -296.43635416 88.98575222 C-289.37442061 76.34073709 -280.07932013 65.64328551 -270.15119791 55.20059597 C-269.53244791 54.51739285 -268.91369791 53.83418972 -268.27619791 53.13028347 C-248.04669131 31.54612242 -219.3135123 17.86827064 -191.15119791 10.20059597 C-190.50860025 10.02189969 -189.8660026 9.8432034 -189.20393229 9.65909207 C-176.39142054 6.15180955 -163.3379761 4.59911418 -150.15119791 3.20059597 C-149.0840293 3.08578129 -149.0840293 3.08578129 -147.99530172 2.96864712 C-142.24224475 2.36827986 -136.50604104 1.9381185 -130.72834635 1.67203152 C-129.34699377 1.60818611 -129.34699377 1.60818611 -127.93773508 1.54305089 C-85.31079219 -0.34358158 -42.65856185 -0.06987637 0 0 Z M-124.46101236 60.02969754 C-125.31651945 60.06425156 -126.17202655 60.09880558 -127.05345809 60.13440669 C-143.56443125 60.82303621 -160.39903827 62.31699952 -176.33869791 66.88809597 C-177.23959146 67.14155789 -178.14048502 67.3950198 -179.06867838 67.65616238 C-198.73900998 73.42811147 -214.4507113 83.03584138 -229.15119791 97.20059597 C-230.13733072 98.09198269 -230.13733072 98.09198269 -231.14338541 99.00137722 C-246.44810222 113.21289998 -254.86783685 134.522405 -259.77619791 154.32559597 C-259.98268961 155.14181424 -260.18918131 155.9580325 -260.40193033 156.79898465 C-263.65314834 170.51328537 -264.5177922 184.77549248 -265.26179361 198.81631863 C-265.30376576 199.59227108 -265.34573791 200.36822352 -265.38898194 201.16768968 C-266.47591736 221.81087534 -266.42790066 242.45894509 -266.38691735 263.12482798 C-266.37792576 268.64614564 -266.37989826 274.16746218 -266.38027811 279.68878567 C-266.37935076 288.94159781 -266.37079312 298.19437653 -266.35700846 307.44717801 C-266.34126508 318.05202881 -266.33601195 328.65684327 -266.33674401 339.26170492 C-266.33742607 350.69813603 -266.33045346 362.13455369 -266.32129741 373.57098067 C-266.31919509 376.80529121 -266.31846029 380.03959949 -266.31805849 383.27391064 C-269.78985149 476.27763468 -269.78985149 476.27763468 -231.15119791 557.20059597 C-230.42158854 558.01141629 -229.69197916 558.8222366 -228.94026041 559.65762722 C-196.27690941 594.32449232 -145.48496655 595.66149788 -101.15119791 597.20059597 C-94.37085298 597.35427226 -87.58962997 597.33818762 -80.80793619 597.32999051 C-78.87486599 597.33135072 -76.94179606 597.33313408 -75.0087266 597.33530056 C-69.82416315 597.33980437 -64.63961993 597.33811397 -59.45505619 597.33492148 C-53.97501595 597.33235732 -48.49497724 597.33474689 -43.01493692 597.33630764 C-33.80774999 597.33811918 -24.60057112 597.33575143 -15.39338541 597.33096707 C-4.83431333 597.32554266 5.72473937 597.32727797 16.28381097 597.33279347 C25.42604624 597.33737322 34.56827576 597.33795119 43.7105118 597.3353548 C49.13656452 597.33381639 54.56260824 597.3335294 59.98866034 597.33689129 C138.90707975 599.60319097 138.90707975 599.60319097 212.84880209 576.20059597 C213.80786459 575.68110379 214.76692709 575.1616116 215.75505209 574.62637722 C242.81028069 558.83089817 257.07215558 531.71267693 264.84489584 502.45059597 C265.62026013 499.04381402 266.26480839 495.64541954 266.84880209 492.20059597 C266.97738607 491.45487332 267.10597006 490.70915066 267.23845053 489.94083035 C267.6657105 487.42552575 268.07350047 484.90782588 268.47380209 482.38809597 C268.65894369 481.2519888 268.65894369 481.2519888 268.84782553 480.09292996 C269.6301186 474.87962921 270.05338677 469.66723086 270.35482931 464.40655911 C270.39777567 463.66186607 270.44072203 462.91717304 270.48496979 462.14991355 C270.9259647 454.22423458 271.19321981 446.29704959 271.40080404 438.36221707 C271.42171878 437.58199901 271.44263351 436.80178095 271.46418202 435.99791992 C271.97496199 416.52318598 272.01340481 397.04907039 272.01605916 377.56875288 C272.0167837 374.56128051 272.0189433 371.55381236 272.02155638 368.54634106 C272.03072185 357.96494403 272.03490195 347.38355935 272.03410482 336.80215847 C272.03350442 327.07904596 272.04407207 317.35598896 272.05984849 307.63289046 C272.07308693 299.15941557 272.07828211 290.68595849 272.07764941 282.21247339 C272.07739942 277.20668975 272.07996474 272.20095584 272.09082747 267.19518292 C274.56715935 174.67924973 274.56715935 174.67924973 233.41130209 95.38809597 C190.47130613 54.00519889 123.299548 58.86690606 68.01021552 58.93194497 C62.22754275 58.93710388 56.44487546 58.93228586 50.66220236 58.92917264 C40.94712813 58.92555741 31.23208453 58.93026326 21.51701498 58.93985379 C10.41095545 58.95069346 -0.69503034 58.94723547 -11.80108804 58.93620098 C-21.45154836 58.9270093 -31.10198698 58.92590091 -40.75245029 58.93107831 C-46.46492433 58.93413904 -52.17736423 58.93477691 -57.88983583 58.92800534 C-80.09667684 58.90548025 -102.27252318 59.06236436 -124.46101236 60.02969754 Z " fill="#FDFDFD" transform="translate(797.1511979103088,271.7994040250778)"/>
<path d="M0 0 C2.18485237 0.01073398 4.36888298 0.00002424 6.55371094 -0.01269531 C51.6498967 -0.05965101 92.63297862 19.93760817 124.37402344 51.13574219 C155.7700012 82.77616344 171.45813537 125.43040831 171.3671875 169.57910156 C171.12532604 198.08539346 164.03403688 225.28542057 150.18652344 250.26074219 C149.82800293 250.90914062 149.46948242 251.55753906 149.10009766 252.22558594 C144.2212874 260.93543722 138.80920415 268.75273784 132.18652344 276.26074219 C131.44402344 277.1128125 130.70152344 277.96488281 129.93652344 278.84277344 C127.71972636 281.34821596 125.4642107 283.81062438 123.18652344 286.26074219 C122.53683594 286.97617187 121.88714844 287.69160156 121.21777344 288.42871094 C105.09625842 305.44931045 83.36521164 318.84586861 61.18652344 326.26074219 C60.34395996 326.54788086 59.50139648 326.83501953 58.63330078 327.13085938 C15.41466481 341.6661729 -30.49260127 339.60924706 -71.57421875 319.39111328 C-81.24802819 314.50780128 -90.24005579 308.9105574 -98.81347656 302.26074219 C-99.67070313 301.60847656 -100.52792969 300.95621094 -101.41113281 300.28417969 C-136.72515965 272.51143988 -158.21799345 232.50038483 -164.39013672 188.24536133 C-165.13714908 181.89200636 -165.14795156 175.51949335 -165.12915039 169.12988281 C-165.12598875 166.89436021 -165.1495699 164.66016545 -165.17480469 162.42480469 C-165.2191362 152.37906298 -164.02536964 143.0505796 -161.81347656 133.26074219 C-161.60940186 132.33970703 -161.40532715 131.41867187 -161.19506836 130.46972656 C-154.28930905 100.72928612 -139.95963653 74.27354806 -118.81347656 52.26074219 C-118.35424805 51.77041504 -117.89501953 51.28008789 -117.421875 50.77490234 C-104.685983 37.20913395 -90.35479596 26.73698234 -73.81347656 18.26074219 C-73.12640625 17.90496094 -72.43933594 17.54917969 -71.73144531 17.18261719 C-61.37704222 11.88054807 -51.04086462 8.23503508 -39.81347656 5.26074219 C-38.81703125 4.96425781 -37.82058594 4.66777344 -36.79394531 4.36230469 C-24.67077014 0.77682682 -12.55553436 -0.07309536 0 0 Z " fill="#FDFDFD" transform="translate(796.8134765625,431.7392578125)"/>
<path d="M0 0 C0.69577148 0.25700684 1.39154297 0.51401367 2.10839844 0.77880859 C17.65681553 6.66091994 30.16943363 15.45280048 42 27 C42.65484375 27.59296875 43.3096875 28.1859375 43.984375 28.796875 C60.58467733 44.17880651 71.66547971 70.04898807 73.23730469 92.36987305 C73.84620298 108.58901232 73.23758846 123.55115853 68 139 C67.62746094 140.18078125 67.25492188 141.3615625 66.87109375 142.578125 C57.61797097 169.27354543 36.21894577 190.92350921 11.19091797 203.29980469 C4.36123064 206.49457516 -2.76271149 208.65640533 -10.06274414 210.49633789 C-11.91089577 210.97683402 -13.73610465 211.54312824 -15.55859375 212.11328125 C-21.28144016 213.52481441 -27.16364424 213.33466725 -33.02416992 213.31567383 C-35.03374659 213.31254477 -37.04330571 213.33673893 -39.05273438 213.36132812 C-65.02844885 213.37406756 -89.85565091 203.59134142 -109 186 C-109.48952148 185.55285645 -109.97904297 185.10571289 -110.48339844 184.64501953 C-127.08423015 169.31267243 -137.13421129 150.64430562 -143 129 C-143.55300781 127.25783203 -143.55300781 127.25783203 -144.1171875 125.48046875 C-145.53306001 119.70935563 -145.29739054 113.77269426 -145.26074219 107.8659668 C-145.25011332 105.83416251 -145.26063271 103.80326019 -145.2734375 101.77148438 C-145.30393389 75.55695006 -136.55539862 53.17305979 -120 33 C-119.42765625 32.27554688 -118.8553125 31.55109375 -118.265625 30.8046875 C-103.01289571 12.28351622 -76.61489445 -2.43683771 -52.69580078 -4.80810547 C-34.85085003 -6.07835826 -16.91470033 -6.42213752 0 0 Z " fill="#000000" transform="translate(836,496)"/>
<path d="M0 0 C1.051875 0.5775 2.10375 1.155 3.1875 1.75 C12.01319605 8.81055684 18.36228097 17.65435611 20 29 C21.1985715 40.1067626 18.32191867 49.78957916 11.8125 58.875 C5.73958994 66.05687624 -2.76265249 72.04012715 -12.26049805 73.29980469 C-14.64100225 73.43676178 -16.99083284 73.46824175 -19.375 73.4375 C-20.21281006 73.42847656 -21.05062012 73.41945313 -21.91381836 73.41015625 C-33.12417204 73.09636659 -41.05778735 68.94221265 -49 61 C-56.1757455 52.09775934 -59.72290718 42.21112341 -59.34765625 30.7578125 C-57.93399235 19.5438045 -51.83909489 9.69867462 -43.21875 2.5703125 C-30.00855628 -6.77915559 -14.04617614 -8.37415007 0 0 Z " fill="#FCFCFC" transform="translate(994,391)"/>
</svg>
