<?xml version="1.0" encoding="utf-8"?>
<!-- Svg Vector Icons : http://www.onlinewebfonts.com/icon -->
<!DOCTYPE svg PUBLIC "-//W3C//DTD SVG 1.1//EN" "http://www.w3.org/Graphics/SVG/1.1/DTD/svg11.dtd">
<svg version="1.1" xmlns="http://www.w3.org/2000/svg" xmlns:xlink="http://www.w3.org/1999/xlink" x="0px" y="0px" viewBox="0 0 256 256" enable-background="new 0 0 256 256" xml:space="preserve">
<metadata> Svg Vector Icons : http://www.onlinewebfonts.com/icon </metadata>
<g><g><g><path fill="#000000" d="M222.5,12.9C158.7,49.7,35.2,121,31.3,123.3c-6.8,4.1-8.8,6.8-9.1,12.6c-0.2,4.7,0.6,7.3,3.2,10.4c1.7,2,3.8,3.1,41.1,22.3L81,176l71.2-77c39.2-42.4,71.4-77,71.5-77c0.2,0-4.8,6.8-73.3,99.7c-26.3,35.7-47.6,65.1-47.3,65.3c1.7,1.5,71.5,36.4,73.9,36.9c3.8,0.9,7.4,0.2,11.2-1.9c4.1-2.3,6.5-6,7.8-11.9c2.6-12,37.9-194,37.9-195.5c0-2.2-1.7-4.2-4-4.6C228.4,9.8,226.8,10.4,222.5,12.9z"/><path fill="#000000" d="M72.6,189.7c0,1,26.2,49.9,27.6,51.7c3.4,4.2,9.5,5.8,13.7,3.8c2.2-1,9.5-8.6,19.4-19.8c2.5-2.8,4.5-5.3,4.5-5.5c0-0.2-14.5-7-32.1-15.1C71.5,188.9,72.6,189.3,72.6,189.7z"/></g></g></g>
</svg>